<svg version="1.1" id="Layer_1" xmlns="http://www.w3.org/2000/svg" xmlns:xlink="http://www.w3.org/1999/xlink" x="0px" y="0px"
	 width="100%" viewBox="0 0 64 64" enable-background="new 0 0 64 64" xml:space="preserve">
<path fill="none" opacity="1.000000" stroke="none" 
	d="
M35.000000,65.000000 
	C23.355185,65.000000 12.210369,65.000000 1.032777,65.000000 
	C1.032777,43.730305 1.032777,22.460548 1.032777,1.095395 
	C22.227612,1.095395 43.455791,1.095395 64.841988,1.095395 
	C64.841988,22.332405 64.841988,43.666084 64.841988,65.000000 
	C55.128159,65.000000 45.314079,65.000000 35.000000,65.000000 
M11.999830,47.814472 
	C11.668834,48.679886 11.337837,49.545303 10.897475,50.696663 
	C18.093880,50.696663 24.937099,50.696663 31.652424,50.696663 
	C31.652424,38.744617 31.652424,27.099361 31.652424,13.937963 
	C26.933012,22.196333 23.003918,29.188671 18.927242,36.093880 
	C18.222443,37.287693 16.892050,38.112171 15.985858,38.360802 
	C12.335755,33.860065 8.685652,29.359325 5.035549,24.858587 
	C4.745093,25.151440 4.454638,25.444292 4.164183,25.737144 
	C4.164183,34.030643 4.164183,42.324139 4.164183,52.470497 
	C6.765934,50.548264 8.356264,49.333187 9.992732,48.183796 
	C10.655694,47.718159 11.419267,47.395763 11.999830,47.814472 
M51.999836,34.499737 
	C46.688370,39.768238 41.376907,45.036739 35.673416,50.694099 
	C45.037769,50.694099 53.415291,50.694099 61.681496,50.694099 
	C61.681496,42.058247 61.681496,33.733131 61.681496,24.647886 
	C58.263321,28.129429 55.381622,31.064550 51.999836,34.499737 
M34.000202,41.325462 
	C34.000202,43.732704 34.000202,46.139942 34.000202,48.507797 
	C38.501354,44.210629 42.749596,40.154911 46.989372,36.107273 
	C42.914337,29.095957 38.875458,22.146849 34.836578,15.197739 
	C34.557789,15.324298 34.278996,15.450857 34.000206,15.577416 
	C34.000206,23.842136 34.000206,32.106857 34.000202,41.325462 
z"/>
<path fill="#F5DDB7" opacity="1.000000" stroke="none" 
	d="
M15.850623,39.107246 
	C16.892050,38.112171 18.222443,37.287693 18.927242,36.093880 
	C23.003918,29.188671 26.933012,22.196333 31.652424,13.937963 
	C31.652424,27.099361 31.652424,38.744617 31.652424,50.696663 
	C24.937099,50.696663 18.093880,50.696663 10.897475,50.696663 
	C11.337837,49.545303 11.668834,48.679886 12.025787,47.422535 
	C12.051744,47.030598 11.984526,47.087715 12.328781,46.965836 
	C13.787072,44.200119 14.901106,41.556282 15.977945,38.964470 
	C15.940751,39.016495 15.850623,39.107246 15.850623,39.107246 
z"/>
<path fill="#F5DDB7" opacity="1.000000" stroke="none" 
	d="
M52.249878,34.249702 
	C55.381622,31.064550 58.263321,28.129429 61.681496,24.647886 
	C61.681496,33.733131 61.681496,42.058247 61.681496,50.694099 
	C53.415291,50.694099 45.037769,50.694099 35.673416,50.694099 
	C41.376907,45.036739 46.688370,39.768238 52.249878,34.249702 
z"/>
<path fill="#F5DDB7" opacity="1.000000" stroke="none" 
	d="
M34.000206,40.848518 
	C34.000206,32.106857 34.000206,23.842136 34.000206,15.577416 
	C34.278996,15.450857 34.557789,15.324298 34.836578,15.197739 
	C38.875458,22.146849 42.914337,29.095957 46.989372,36.107273 
	C42.749596,40.154911 38.501354,44.210629 34.000202,48.507797 
	C34.000202,46.139942 34.000202,43.732704 34.000206,40.848518 
z"/>
<path fill="#F5DDB7" opacity="1.000000" stroke="none" 
	d="
M12.094400,47.019394 
	C11.419267,47.395763 10.655694,47.718159 9.992732,48.183796 
	C8.356264,49.333187 6.765934,50.548264 4.164183,52.470497 
	C4.164183,42.324139 4.164183,34.030643 4.164183,25.737144 
	C4.454638,25.444292 4.745093,25.151440 5.035549,24.858587 
	C8.685652,29.359325 12.335755,33.860065 15.918241,38.734024 
	C15.850623,39.107246 15.940751,39.016495 15.633827,39.086170 
	C14.212778,41.799801 13.098652,44.443760 11.984526,47.087715 
	C11.984526,47.087715 12.051744,47.030598 12.094400,47.019394 
z"/>
<path fill="none" opacity="1.000000" stroke="none" 
	d="
M12.328781,46.965836 
	C13.098652,44.443760 14.212778,41.799801 15.671022,39.034149 
	C14.901106,41.556282 13.787072,44.200119 12.328781,46.965836 
z"/>
</svg>